<?xml version="1.0" encoding="UTF-8" standalone="no"?>
<svg
   height="17"
   viewBox="0 -960 880 680"
   width="22"
   fill="#1f1f1f"
   version="1.1"
   id="svg1"
   sodipodi:docname="folder_open_24dp_1F1F1F_FILL0_wght400_GRAD0_opsz24.svg"
   inkscape:version="1.3.2 (1:1.3.2+202311252150+091e20ef0f)"
   xmlns:inkscape="http://www.inkscape.org/namespaces/inkscape"
   xmlns:sodipodi="http://sodipodi.sourceforge.net/DTD/sodipodi-0.dtd"
   xmlns="http://www.w3.org/2000/svg"
   xmlns:svg="http://www.w3.org/2000/svg">
  <defs
     id="defs1" />
  <sodipodi:namedview
     id="namedview1"
     pagecolor="#ffffff"
     bordercolor="#999999"
     borderopacity="1"
     inkscape:showpageshadow="2"
     inkscape:pageopacity="0"
     inkscape:pagecheckerboard="0"
     inkscape:deskcolor="#d1d1d1"
     inkscape:zoom="49.875"
     inkscape:cx="12"
     inkscape:cy="12"
     inkscape:window-width="2560"
     inkscape:window-height="1379"
     inkscape:window-x="0"
     inkscape:window-y="0"
     inkscape:window-maximized="1"
     inkscape:current-layer="svg1" />
  <path
     d="m 90.000002,-300 q -33,0 -56.5,-23.5 -23.5,-23.5 -23.5,-56.5 v -480 q 0,-33 23.5,-56.5 23.5,-23.5 56.5,-23.5 H 330 l 80,80 h 320 q 33,0 56.5,23.5 Q 810,-813 810,-780 H 377 l -80,-80 H 90.000002 v 480 L 186,-700 h 684 l -103,343 q -8,26 -29.5,41.5 Q 716,-300 690,-300 Z M 174,-380 h 516 l 72,-240 H 246 Z m 0,0 72,-240 z M 90.000002,-780 v -80 z"
     id="path1" />
</svg>
